<svg width="27" height="24" viewBox="0 0 27 24" fill="none" xmlns="http://www.w3.org/2000/svg">
<path fill-rule="evenodd" clip-rule="evenodd" d="M8.6031 15.4075C8.58012 15.2737 8.55684 15.1381 8.53295 15.0003C8.61393 15.0003 8.68673 15.0002 8.75566 15C8.81763 14.9999 8.87646 14.9997 8.9353 14.9997C10.1486 14.9997 11.362 14.999 12.5754 14.9983C16.2156 14.9962 19.856 14.9941 23.496 15.011C24.3082 15.0147 25.037 14.5903 25.2341 13.5697C25.7645 10.8175 26.322 8.071 26.8796 5.32422L26.9546 4.95459C27.1843 3.8202 26.5259 3.00082 25.3577 3.00082H6.40631C6.37123 2.80581 6.33668 2.61297 6.30243 2.42173C6.20922 1.90138 6.11814 1.39294 6.02405 0.885167C5.91734 0.30891 5.54574 0.00203127 4.95382 0.00140627C3.657 -0.000468756 2.35955 -0.000468756 1.06273 0.00140627C0.440686 0.00203127 0.00506454 0.407661 4.29647e-05 0.983918C-0.00497861 1.57955 0.430643 1.99831 1.06273 1.99956C2.01432 2.00143 2.96654 2.00206 3.91812 1.99831C4.07944 1.99768 4.17862 2.00768 4.2144 2.21456C4.47777 3.7344 4.74865 5.25295 5.0195 6.77137C5.12434 7.35912 5.22918 7.94685 5.33358 8.53464C5.56948 9.86404 5.80484 11.1934 6.0402 12.5228C6.36971 14.3841 6.69923 16.2454 7.03024 18.1066C7.13381 18.6898 7.50478 18.9979 8.0923 18.9991C8.77281 19.0009 9.45362 19.0005 10.1345 19.0001C10.4265 18.9999 10.7185 18.9998 11.0105 18.9998C11.7574 18.9998 12.5043 18.9999 13.2512 18.9999C16.8352 19.0004 20.4189 19.0008 24.0025 18.991C24.2379 18.9904 24.5034 18.9154 24.7018 18.7904C25.0771 18.5541 25.2002 18.0885 25.0608 17.6879C24.9064 17.2454 24.553 17.001 24.0534 17.001H9.30439C9.27894 17.001 9.25261 17.0031 9.22627 17.0052C9.16619 17.0099 9.106 17.0147 9.05582 16.9947C8.97736 16.9635 8.87128 16.8941 8.85809 16.8254C8.76694 16.3617 8.687 15.8962 8.6031 15.4075ZM7.93037 13.0822L6.59703 5.0822C6.54624 4.77743 6.78126 4.5 7.09023 4.5H24.9098C25.2187 4.5 25.4538 4.77743 25.403 5.0822L24.0696 13.0822C24.0295 13.3233 23.8209 13.5 23.5764 13.5H8.42356C8.17914 13.5 7.97055 13.3233 7.93037 13.0822Z" fill="#FABA2C"/>
<path d="M11.046 22.0295C11.0403 23.1333 10.1434 24.0052 9.01664 24.0008C7.89306 23.997 7.02119 23.1002 7.02935 21.957C7.03751 20.8595 7.9414 19.9951 9.07376 20.002C10.1804 20.0089 11.051 20.9045 11.0454 22.0295H11.046Z" fill="#FABA2C"/>
<path d="M23.0948 24.0008C21.9775 24.0001 21.0924 23.117 21.0918 22.0039C21.0918 20.8751 21.98 19.9976 23.1205 20.002C24.2328 20.0057 25.1103 20.8945 25.1078 22.0139C25.1053 23.1233 24.2152 24.002 23.0948 24.0008Z" fill="#FABA2C"/>
<path d="M16 6V12M19 9H13" stroke="#FABA2C" stroke-width="1.5"/>
</svg>
