<svg width="14" height="14" viewBox="0 0 14 14" fill="none" xmlns="http://www.w3.org/2000/svg">
<path d="M6.34838 0.0377788L13.7856 6.46854C13.8529 6.52667 13.9069 6.59853 13.9439 6.67926C13.9809 6.75999 14 6.84771 14 6.93646C14 7.0252 13.9809 7.11292 13.9439 7.19365C13.9069 7.27438 13.8529 7.34625 13.7856 7.40438L6.34838 13.8332C6.32596 13.8526 6.29841 13.8652 6.26902 13.8695C6.23962 13.8737 6.20961 13.8695 6.18256 13.8573C6.15552 13.845 6.13258 13.8253 6.11647 13.8004C6.10036 13.7755 6.09177 13.7465 6.09172 13.7169L6.09172 12.1475C6.09172 12.0584 6.13061 11.9731 6.19866 11.9131L11.1043 7.67176L0.15555 7.67176C0.0699979 7.67176 7.47581e-08 7.60201 7.57747e-08 7.51675L8.96378e-08 6.35422C9.06545e-08 6.26897 0.0699979 6.19921 0.15555 6.19921L11.1043 6.19921L6.19866 1.9579C6.13061 1.89977 6.09172 1.81452 6.09172 1.72345L6.09172 0.154033C6.09172 0.0222787 6.24727 -0.0494109 6.34838 0.0377788Z" fill="#FABA2C"/>
</svg>
