<svg width="27" height="25" viewBox="0 0 27 25" fill="none" xmlns="http://www.w3.org/2000/svg">
<path d="M8.53295 15.9124C8.64405 16.5531 8.74197 17.1468 8.85809 17.7375C8.87127 17.8062 8.97736 17.8756 9.05582 17.9068C9.128 17.9356 9.2209 17.9131 9.30439 17.9131C14.2205 17.9131 19.1372 17.9131 24.0534 17.9131C24.553 17.9131 24.9064 18.1575 25.0608 18.6C25.2002 19.0006 25.0771 19.4662 24.7018 19.7025C24.5034 19.8275 24.2379 19.9025 24.0025 19.9031C19.672 19.915 15.3416 19.9119 11.0105 19.9119C10.0375 19.9119 9.0646 19.9137 8.0923 19.9112C7.50478 19.91 7.13381 19.6019 7.03024 19.0187C6.4628 15.8281 5.89976 12.6374 5.33358 9.44674C4.95947 7.34047 4.57972 5.23482 4.2144 3.12667C4.17862 2.91979 4.07944 2.90979 3.91812 2.91041C2.96654 2.91417 2.01432 2.91354 1.06273 2.91166C0.430643 2.91041 -0.00497861 2.49166 4.29647e-05 1.89603C0.00506453 1.31977 0.440686 0.914141 1.06273 0.913516C2.35955 0.911641 3.657 0.911641 4.95382 0.913516C5.54574 0.914141 5.91734 1.22102 6.02404 1.79728C6.15272 2.49166 6.27575 3.18729 6.40631 3.91293H6.77979C12.9726 3.91293 19.1649 3.91293 25.3577 3.91293C26.5259 3.91293 27.1843 4.73231 26.9546 5.8667C26.3721 8.73674 25.7883 11.6061 25.2341 14.4818C25.037 15.5024 24.3082 15.9268 23.496 15.9231C18.6426 15.9006 13.7886 15.9118 8.9353 15.9118C8.81102 15.9118 8.68673 15.9118 8.53295 15.9118V15.9124Z" fill="#FABA2C"/>
<path d="M11.046 22.9416C11.0403 24.0454 10.1434 24.9173 9.01664 24.9129C7.89306 24.9092 7.02119 24.0123 7.02935 22.8691C7.03751 21.7716 7.9414 20.9072 9.07376 20.9141C10.1804 20.921 11.051 21.8166 11.0454 22.9416H11.046Z" fill="#FABA2C"/>
<path d="M23.0948 24.9129C21.9775 24.9123 21.0924 24.0291 21.0918 22.916C21.0918 21.7872 21.98 20.9097 23.1205 20.9141C24.2328 20.9178 25.1103 21.8066 25.1078 22.926C25.1053 24.0354 24.2152 24.9141 23.0948 24.9129Z" fill="#FABA2C"/>
</svg>
