<svg width="24" height="25" viewBox="0 0 24 25" fill="none" xmlns="http://www.w3.org/2000/svg">
<path d="M2.66795 24.0352L0.90625 23.2763C1.39561 22.1379 2.96157 21.4739 4.6254 20.715C6.28923 19.9561 8.34455 19.1024 8.34455 18.0589V16.6359C7.75731 16.1616 6.77859 15.1182 6.58285 13.6004C6.09348 13.1261 5.31051 12.2723 5.31051 11.134C5.31051 10.4699 5.60412 9.90077 5.79987 9.52132C5.60412 8.76243 5.40838 7.3395 5.40838 6.20116C5.40838 2.50156 8.05093 0.0351562 12.2594 0.0351562C13.4339 0.0351562 14.902 0.319741 15.685 1.1735C17.5445 1.55294 19.1105 3.6399 19.1105 6.20116C19.1105 7.81381 18.8169 9.14188 18.6211 9.80591C18.8169 10.0905 19.0126 10.5648 19.0126 11.134C19.0126 12.3672 18.3275 13.2209 17.7403 13.6004C17.5445 15.1182 16.6637 16.0668 16.0765 16.5411V18.0589C16.0765 18.9126 17.8382 19.5767 19.4041 20.1458C21.2637 20.8099 23.2211 21.5688 23.9062 23.0865L22.0467 23.7506C21.7531 22.9917 20.1871 22.4225 18.719 21.9482C16.5658 21.1893 14.119 20.3356 14.119 18.1537V15.6873L14.6084 15.4027C14.6084 15.4027 15.7828 14.6439 15.7828 13.1261V12.462L16.3701 12.1774C16.468 12.1774 16.9573 11.8929 16.9573 11.134C16.9573 10.9442 16.7616 10.6597 16.6637 10.5648L16.2722 10.1854L16.468 9.71105C16.468 9.71105 16.9573 8.19326 16.9573 6.29603C16.9573 4.49365 15.8807 3.16559 14.9999 3.16559H14.4126L14.119 2.69128C14.119 2.31184 13.4339 1.93239 12.2594 1.93239C9.2254 1.93239 7.36582 3.54504 7.36582 6.20116C7.36582 7.43437 7.85519 9.52132 7.85519 9.52132L7.95306 9.99563L7.56157 10.4699C7.4637 10.4699 7.26795 10.7545 7.26795 11.134C7.26795 11.6083 7.85519 12.1774 8.1488 12.3672L8.54029 12.6518V13.1261C8.54029 14.549 9.81263 15.3079 9.81263 15.4027L10.302 15.6873V18.1537C10.302 20.4304 7.75731 21.5688 5.40838 22.5174C4.33178 22.8968 2.8637 23.5608 2.66795 24.0352Z" fill="#FABA2C"/>
</svg>
