<svg width="16" height="16" viewBox="0 0 16 16" fill="none" xmlns="http://www.w3.org/2000/svg">
<g clip-path="url(#clip0_3338_19760)">
<mask id="mask0_3338_19760" style="mask-type:luminance" maskUnits="userSpaceOnUse" x="0" y="0" width="16" height="16">
<path d="M16 8C16 3.58172 12.4183 0 8 0C3.58172 0 0 3.58172 0 8C0 12.4183 3.58172 16 8 16C12.4183 16 16 12.4183 16 8Z" fill="white"></path>
</mask>
<g mask="url(#mask0_3338_19760)">
<path d="M9.88399 7.63473H5.15702V5.76421H9.88399C10.1601 5.76421 10.3521 5.81234 10.4484 5.89638C10.5448 5.98042 10.6045 6.1363 10.6045 6.36401V7.03565C10.6045 7.27556 10.5448 7.43144 10.4484 7.51549C10.3521 7.59953 10.1601 7.63545 9.88399 7.63545V7.63473ZM10.2083 4.00072H3.15234V12H5.15702V9.3975H8.85146L10.6045 12H12.8493L10.9165 9.3853C11.6291 9.2797 11.9491 9.06132 12.213 8.70144C12.4768 8.34156 12.6092 7.76618 12.6092 6.99829V6.3985C12.6092 5.94307 12.561 5.58319 12.4768 5.30736C12.3927 5.03152 12.249 4.7916 12.0447 4.5761C11.829 4.3721 11.5888 4.22842 11.3005 4.13217C11.0122 4.04813 10.6519 4 10.2083 4V4.00072Z" fill="#9B9B9B"></path>
<path d="M24 3.93752e-06C24 4.41828 20.4183 8.00001 16 8.00001C15.1017 8.00001 14.2381 7.85195 13.432 7.57892C13.4492 7.38881 13.4568 7.19444 13.4568 6.99829V6.3985C13.4568 5.88921 13.4036 5.44029 13.2876 5.05983C13.1624 4.64955 12.9479 4.29646 12.6598 3.99249L12.6438 3.97561L12.6269 3.95964C12.32 3.66935 11.972 3.46212 11.5684 3.32735L11.5528 3.32217L11.5371 3.31759C11.1528 3.20558 10.7092 3.15152 10.2075 3.15152H9.35897V3.15223H8.64498C8.22987 2.18493 8 1.11931 8 3.93752e-06C8 -4.41828 11.5817 -8 16 -8C20.4183 -8 24 -4.41828 24 3.93752e-06Z" fill="#9B9B9B"></path>
</g>
<path d="M15.8787 7.99988C15.8787 3.64855 12.3512 0.121094 7.99988 0.121094C3.64855 0.121094 0.121094 3.64855 0.121094 7.99988C0.121094 12.3512 3.64855 15.8787 7.99988 15.8787C12.3512 15.8787 15.8787 12.3512 15.8787 7.99988Z" stroke="#9B9B9B" stroke-width="2"></path>
</g>
<defs>
<clipPath id="clip0_3338_19760">
<rect width="16" height="16" fill="white"></rect>
</clipPath>
</defs>
</svg>