<svg width="23" height="23" viewBox="0 0 23 23" fill="none" xmlns="http://www.w3.org/2000/svg">
<path fill-rule="evenodd" clip-rule="evenodd" d="M13.3919 13.0945L18.4222 18.1246L18.4221 15.889L14.4453 11.9121C15.1105 10.9328 15.4948 9.74817 15.4836 8.47478C15.4543 5.14466 12.731 2.46883 9.40085 2.49815C6.07073 2.52746 3.3949 5.25081 3.42421 8.58093C3.45353 11.911 6.17688 14.5869 9.507 14.5576C10.993 14.5445 12.3487 13.995 13.3919 13.0945ZM9.4894 12.5576C7.26381 12.5772 5.44373 10.7889 5.42414 8.56333C5.40455 6.33774 7.19286 4.51766 9.41845 4.49807C11.644 4.47848 13.4641 6.26679 13.4837 8.49239C13.5033 10.718 11.715 12.5381 9.4894 12.5576Z" fill="black"/>
</svg>
