<svg width="24" height="24" viewBox="0 0 24 24" fill="none" xmlns="http://www.w3.org/2000/svg">
                <path fill-rule="evenodd" clip-rule="evenodd" d="M2.51239 11.0404C8.41795 8.07678 12.3559 6.123 14.3263 5.17903C19.9521 2.48381 21.1211 2.01562 21.883 2.00016C22.0506 1.99676 22.4253 2.0446 22.668 2.27145C22.873 2.46299 22.9294 2.72174 22.9563 2.90334C22.9833 3.08495 23.0169 3.49865 22.9902 3.8219C22.6854 7.51145 21.3662 16.465 20.6951 20.5974C20.4111 22.3459 19.852 22.9322 19.3107 22.9896C18.1343 23.1143 17.2409 22.0941 16.1015 21.2338C14.3186 19.8876 13.3113 19.0496 11.5807 17.736C9.58058 16.2179 10.8772 15.3835 12.017 14.0199C12.3153 13.663 17.4986 8.23264 17.5989 7.74002C17.6115 7.67841 17.6231 7.44875 17.5046 7.32749C17.3862 7.20622 17.2114 7.24769 17.0852 7.28067C16.9064 7.32742 14.0581 9.49585 8.54035 13.786C7.73187 14.4254 6.99958 14.737 6.34347 14.7206C5.62016 14.7026 4.2288 14.2496 3.19447 13.8623C1.92583 13.3873 0.91753 13.1362 1.00533 12.3295C1.05106 11.9093 1.55341 11.4796 2.51239 11.0404Z" fill="currentColor"></path>
</svg>